<?xml version="1.0" standalone="no"?><!DOCTYPE svg PUBLIC "-//W3C//DTD SVG 1.1//EN" "http://www.w3.org/Graphics/SVG/1.1/DTD/svg11.dtd"><svg t="1592794416377" class="icon" viewBox="0 0 1024 1024" version="1.1" xmlns="http://www.w3.org/2000/svg" p-id="5069" width="64" height="64" xmlns:xlink="http://www.w3.org/1999/xlink"><defs><style type="text/css"></style></defs><path d="M1024 512C1024 229.229714 794.770286 0 512 0S0 229.229714 0 512 229.229714 1024 512 1024 1024 794.770286 1024 512z m-977.432381 0A465.432381 465.432381 0 0 1 512 46.567619a465.432381 465.432381 0 0 1 465.432381 465.432381 465.432381 465.432381 0 0 1-465.432381 465.432381A465.432381 465.432381 0 0 1 46.567619 512z" p-id="5070" fill="#ffffff"></path><path d="M538.087619 680.911238c0.926476-3.85219 1.365333-10.873905 1.365333-21.162667v-18.236952l-0.341333-316.854857c16.579048 11.459048 38.863238 21.942857 66.950095 31.548952 27.599238 9.752381 41.398857 22.430476 41.398857 37.936762 0 9.99619-5.36381 22.089143-16.188952 36.132572l8.630857 14.726095c28.525714-28.91581 42.76419-54.125714 42.764191-75.580953 0-32.914286-30.232381-58.806857-90.794667-77.628952-17.700571-5.753905-29.744762-11.459048-36.035048-17.212952-6.339048-5.753905-12.141714-15.993905-17.456762-30.768762l-21.01638 1.072762v401.700571c-23.698286-21.211429-48.176762-31.890286-73.532953-31.890286-28.038095 0-52.175238 5.753905-72.313905 17.164191-20.138667 11.459048-30.183619 25.35619-30.183619 41.545143 0 38.66819 32.085333 58.026667 96.256 58.026666 28.281905 0 51.248762-4.827429 68.85181-14.531047 17.700571-9.703619 28.184381-21.650286 31.646476-35.986286z" p-id="5071" fill="#ffffff"></path></svg>